<svg width="33" height="33" viewBox="0 0 33 33" fill="none" xmlns="http://www.w3.org/2000/svg">
<path d="M16.475 17.1666C16.8432 17.1666 17.1417 16.8681 17.1417 16.4999C17.1417 16.1317 16.8432 15.8333 16.475 15.8333C16.1068 15.8333 15.8083 16.1317 15.8083 16.4999C15.8083 16.8681 16.1068 17.1666 16.475 17.1666Z" stroke="#09090B" stroke-width="1.33333" stroke-linecap="round" stroke-linejoin="round"/>
<path d="M21.1417 17.1666C21.5099 17.1666 21.8084 16.8681 21.8084 16.4999C21.8084 16.1317 21.5099 15.8333 21.1417 15.8333C20.7735 15.8333 20.475 16.1317 20.475 16.4999C20.475 16.8681 20.7735 17.1666 21.1417 17.1666Z" stroke="#09090B" stroke-width="1.33333" stroke-linecap="round" stroke-linejoin="round"/>
<path d="M11.8084 17.1666C12.1766 17.1666 12.4751 16.8681 12.4751 16.4999C12.4751 16.1317 12.1766 15.8333 11.8084 15.8333C11.4402 15.8333 11.1417 16.1317 11.1417 16.4999C11.1417 16.8681 11.4402 17.1666 11.8084 17.1666Z" stroke="#09090B" stroke-width="1.33333" stroke-linecap="round" stroke-linejoin="round"/>
</svg>
